TITLE ""
FILE "Step3_Track08.mp3" MP3
  TRACK 01 AUDIO
    TITLE "Step3_Track08_01"
    INDEX 01 00:00:00
  TRACK 02 AUDIO
    TITLE "Step3_Track08_02"
    INDEX 01 00:00:24
  TRACK 03 AUDIO
    TITLE "Step3_Track08_03"
    INDEX 01 00:01:41
  TRACK 04 AUDIO
    TITLE "Step3_Track08_04"
    INDEX 01 00:02:23
  TRACK 05 AUDIO
    TITLE "Step3_Track08_05"
    INDEX 01 00:03:22
  TRACK 06 AUDIO
    TITLE "Step3_Track08_06"
    INDEX 01 00:03:52
  TRACK 07 AUDIO
    TITLE "Step3_Track08_07"
    INDEX 01 00:07:14
  TRACK 08 AUDIO
    TITLE "Step3_Track08_08"
    INDEX 01 00:07:28
  TRACK 09 AUDIO
    TITLE "Step3_Track08_09"
    INDEX 01 00:08:24
  TRACK 10 AUDIO
    TITLE "Step3_Track08_10"
    INDEX 01 00:08:39
  TRACK 11 AUDIO
    TITLE "Step3_Track08_11"
    INDEX 01 00:11:10
  TRACK 12 AUDIO
    TITLE "Step3_Track08_12"
    INDEX 01 00:11:43
  TRACK 13 AUDIO
    TITLE "Step3_Track08_13"
    INDEX 01 00:12:37
  TRACK 14 AUDIO
    TITLE "Step3_Track08_14"
    INDEX 01 00:12:51
  TRACK 15 AUDIO
    TITLE "Step3_Track08_15"
    INDEX 01 00:15:45
  TRACK 16 AUDIO
    TITLE "Step3_Track08_16"
    INDEX 01 00:15:57
  TRACK 17 AUDIO
    TITLE "Step3_Track08_17"
    INDEX 01 00:16:52
  TRACK 18 AUDIO
    TITLE "Step3_Track08_18"
    INDEX 01 00:16:68
  TRACK 19 AUDIO
    TITLE "Step3_Track08_19"
    INDEX 01 00:20:15
  TRACK 20 AUDIO
    TITLE "Step3_Track08_20"
    INDEX 01 00:20:29
  TRACK 21 AUDIO
    TITLE "Step3_Track08_21"
    INDEX 01 00:21:20
  TRACK 22 AUDIO
    TITLE "Step3_Track08_22"
    INDEX 01 00:21:34
  TRACK 23 AUDIO
    TITLE "Step3_Track08_23"
    INDEX 01 00:24:68
  TRACK 24 AUDIO
    TITLE "Step3_Track08_24"
    INDEX 01 00:25:28
  TRACK 25 AUDIO
    TITLE "Step3_Track08_25"
    INDEX 01 00:26:29
  TRACK 26 AUDIO
    TITLE "Step3_Track08_26"
    INDEX 01 00:26:39
  TRACK 27 AUDIO
    TITLE "Step3_Track08_27"
    INDEX 01 00:29:61
  TRACK 28 AUDIO
    TITLE "Step3_Track08_28"
    INDEX 01 00:30:15
  TRACK 29 AUDIO
    TITLE "Step3_Track08_29"
    INDEX 01 00:31:19
  TRACK 30 AUDIO
    TITLE "Step3_Track08_30"
    INDEX 01 00:31:27
  TRACK 31 AUDIO
    TITLE "Step3_Track08_31"
    INDEX 01 00:33:69
  TRACK 32 AUDIO
    TITLE "Step3_Track08_32"
    INDEX 01 00:34:13
  TRACK 33 AUDIO
    TITLE "Step3_Track08_33"
    INDEX 01 00:35:05
  TRACK 34 AUDIO
    TITLE "Step3_Track08_34"
    INDEX 01 00:35:28
  TRACK 35 AUDIO
    TITLE "Step3_Track08_35"
    INDEX 01 00:39:24
  TRACK 36 AUDIO
    TITLE "Step3_Track08_36"
    INDEX 01 00:39:53
  TRACK 37 AUDIO
    TITLE "Step3_Track08_37"
    INDEX 01 00:40:55
  TRACK 38 AUDIO
    TITLE "Step3_Track08_38"
    INDEX 01 00:40:61
  TRACK 39 AUDIO
    TITLE "Step3_Track08_39"
    INDEX 01 00:43:30
  TRACK 40 AUDIO
    TITLE "Step3_Track08_40"
    INDEX 01 00:43:53
  TRACK 41 AUDIO
    TITLE "Step3_Track08_41"
    INDEX 01 00:44:49
  TRACK 42 AUDIO
    TITLE "Step3_Track08_42"
    INDEX 01 00:44:72
  TRACK 43 AUDIO
    TITLE "Step3_Track08_43"
    INDEX 01 00:48:11
